<?xml version="1.0" encoding="UTF-8" ?>
<!DOCTYPE svg PUBLIC "-//W3C//DTD SVG 1.1//EN" "http://www.w3.org/Graphics/SVG/1.1/DTD/svg11.dtd">
<svg width="459pt" height="512pt" viewBox="0 0 459 512" version="1.1" xmlns="http://www.w3.org/2000/svg">
<g id="#ffeb3bff">
<path fill="#ffeb3b" opacity="1.00" d=" M 368.92 0.00 L 380.95 0.00 C 383.75 1.43 386.87 1.62 389.95 1.54 C 408.37 3.09 426.04 9.87 441.78 19.36 C 447.06 22.46 451.77 26.40 456.87 29.76 C 448.30 26.44 438.98 27.55 430.00 27.22 C 416.97 26.89 404.02 28.89 391.41 32.02 C 380.98 34.96 370.42 37.91 360.78 42.95 C 376.56 50.85 391.80 60.22 404.67 72.41 C 422.09 88.40 435.49 109.05 441.77 131.94 C 444.64 140.66 444.75 149.93 446.72 158.84 C 439.54 146.32 429.33 135.90 418.96 125.99 C 396.90 105.97 370.34 91.27 342.29 81.48 C 336.64 79.46 330.92 77.54 325.04 76.32 C 326.60 80.97 328.98 85.28 330.88 89.79 C 344.80 122.59 353.31 157.69 355.90 193.22 C 357.03 201.42 356.30 209.75 356.51 218.01 C 356.27 229.36 357.19 240.80 355.58 252.08 C 355.60 257.79 354.55 263.41 353.69 269.03 C 353.48 274.16 352.61 279.22 351.74 284.27 C 344.91 327.29 331.39 369.09 313.47 408.73 C 308.34 419.75 303.24 430.80 297.15 441.33 C 315.00 447.83 332.24 456.26 347.66 467.45 C 360.68 476.43 371.91 487.61 382.82 498.97 C 369.10 493.50 354.45 491.11 339.97 488.67 C 326.00 487.99 312.00 488.02 298.03 488.66 C 288.62 490.29 279.11 491.41 269.77 493.47 C 241.61 499.47 213.82 507.87 185.04 510.47 C 181.01 510.64 176.71 509.83 173.05 512.00 L 155.12 512.00 C 151.37 509.88 147.04 510.62 142.94 510.47 C 124.32 508.84 106.10 504.39 88.20 499.17 C 95.17 491.85 102.05 484.39 109.87 477.96 C 124.76 465.22 141.61 454.81 159.58 447.01 C 151.57 434.64 143.73 422.11 137.51 408.72 C 124.09 380.21 115.73 349.32 112.88 317.94 C 112.09 305.26 110.74 292.46 112.42 279.78 C 112.28 270.07 114.25 260.50 115.55 250.99 C 108.40 254.24 102.42 259.45 96.22 264.16 C 85.32 273.63 74.95 283.89 66.69 295.79 C 57.90 308.26 50.99 322.21 46.96 336.89 C 45.84 331.03 45.46 325.00 44.70 319.06 C 43.47 294.20 51.40 269.12 66.25 249.18 C 70.90 242.58 76.68 236.90 81.98 230.84 C 75.83 229.69 69.59 229.55 63.41 228.69 C 53.62 227.83 43.89 229.13 34.15 229.76 C 23.22 232.16 12.10 234.60 2.19 239.99 C 5.65 236.46 8.46 232.36 11.89 228.80 C 27.48 211.85 49.07 200.60 71.87 197.42 C 80.17 195.87 88.66 196.63 97.06 196.54 C 106.57 197.42 116.02 199.33 125.14 202.19 C 128.59 203.54 132.09 201.81 135.34 200.71 C 145.00 197.53 155.10 195.85 165.20 194.92 C 195.41 192.44 227.08 202.67 248.52 224.48 C 253.14 228.82 256.80 234.04 261.11 238.66 C 238.73 225.22 211.47 222.44 185.97 225.43 C 181.25 225.38 176.73 226.84 172.18 227.87 C 176.15 231.87 180.57 235.42 184.08 239.86 C 200.10 257.41 210.52 280.20 212.49 303.94 C 212.56 309.63 212.49 315.33 212.52 321.03 C 212.65 327.14 210.22 332.94 210.25 339.05 C 209.53 334.75 208.43 330.53 206.80 326.48 C 198.61 303.83 182.96 284.64 164.72 269.25 C 153.84 260.56 142.26 252.50 129.47 246.88 C 129.41 252.90 129.30 258.96 130.35 264.92 C 130.28 275.39 132.79 285.63 134.51 295.91 C 140.60 327.62 152.39 358.19 168.92 385.91 C 179.30 402.92 191.03 419.31 205.07 433.48 C 213.09 433.35 220.99 431.16 229.06 431.50 C 231.74 431.87 232.95 429.06 234.56 427.47 C 267.93 386.41 294.35 339.41 310.19 288.84 C 318.53 262.65 323.73 235.45 325.52 208.05 C 325.91 193.38 325.80 178.70 325.36 164.04 C 323.90 155.99 323.39 147.81 321.84 139.78 C 318.35 119.00 311.92 98.83 303.97 79.36 C 278.27 101.32 257.63 129.66 246.50 161.71 C 243.20 171.22 241.39 181.15 239.63 191.02 C 239.40 196.65 239.18 202.30 239.59 207.93 C 238.76 205.71 237.89 203.50 236.81 201.39 C 231.29 189.80 227.40 177.40 225.60 164.68 C 223.83 156.22 224.67 147.54 224.50 138.97 C 226.03 116.96 233.28 95.45 244.87 76.70 C 247.06 73.41 249.17 70.07 251.16 66.65 C 240.54 65.58 230.12 67.90 219.61 68.85 C 189.13 73.51 158.37 84.04 135.14 104.97 C 142.83 88.22 153.14 72.35 167.25 60.30 C 192.38 37.92 225.83 26.94 258.97 24.50 C 268.98 24.51 278.99 24.42 289.00 24.55 C 292.10 24.48 295.57 25.44 298.27 23.43 C 306.77 18.29 315.69 13.82 324.93 10.16 C 334.71 6.26 345.03 4.02 355.34 2.01 C 359.83 0.93 364.75 2.46 368.92 0.00 Z" />
</g>
</svg>
