<?xml version="1.0" encoding="UTF-8" ?>
<!DOCTYPE svg PUBLIC "-//W3C//DTD SVG 1.1//EN" "http://www.w3.org/Graphics/SVG/1.1/DTD/svg11.dtd">
<svg width="459pt" height="512pt" viewBox="0 0 459 512" version="1.1" xmlns="http://www.w3.org/2000/svg">
<g id="#006775ff">
<path fill="#006775" opacity="1.00" d=" M 369.70 0.00 L 381.02 0.00 C 394.27 1.03 407.59 3.26 420.04 8.16 C 433.58 13.15 445.96 20.83 457.25 29.75 C 434.96 25.54 411.83 27.15 389.97 32.89 C 380.34 35.63 370.58 38.46 361.67 43.01 C 384.58 54.06 405.78 69.49 421.21 89.91 C 436.45 109.67 445.52 134.15 446.57 159.10 C 432.69 137.28 413.12 119.46 391.41 105.61 C 371.00 92.47 348.32 83.27 325.11 76.41 C 340.97 108.45 350.79 143.41 355.00 178.88 C 359.65 218.19 357.45 258.16 349.99 296.98 C 340.41 347.44 321.97 395.93 297.99 441.25 C 330.84 452.57 360.40 472.89 383.08 499.18 C 356.74 490.39 328.66 486.28 300.94 489.15 C 264.90 492.35 230.65 505.31 194.81 509.76 C 185.46 511.19 175.97 511.52 166.55 512.00 L 161.58 512.00 C 136.53 511.50 111.59 507.07 87.77 499.29 C 107.26 476.82 131.67 458.47 159.08 446.79 C 138.89 417.66 124.43 384.53 117.23 349.81 C 110.35 317.56 109.70 284.07 114.75 251.51 C 83.06 271.14 57.27 301.58 46.95 337.76 C 44.01 324.60 43.44 310.89 45.44 297.55 C 49.10 272.86 61.96 250.02 79.93 232.89 C 80.20 232.42 80.74 231.50 81.01 231.03 C 78.50 230.84 76.00 230.50 73.50 230.20 C 49.38 226.99 24.31 230.04 2.08 240.08 C 8.86 230.67 16.94 222.14 26.37 215.33 C 42.21 203.77 61.48 197.10 81.04 196.06 C 96.95 194.98 113.01 197.52 128.10 202.59 C 157.69 191.69 191.86 190.57 220.71 204.34 C 237.23 211.98 250.98 224.58 261.67 239.16 C 249.75 232.50 236.63 227.99 223.09 226.12 C 206.34 223.54 189.29 224.91 172.70 227.90 C 188.41 241.65 201.14 259.17 207.75 279.09 C 214.32 298.38 214.98 319.51 210.15 339.27 C 203.91 312.27 187.01 288.67 166.03 271.00 C 155.04 261.44 142.50 253.83 129.70 247.03 C 129.94 259.71 131.06 272.38 133.06 284.90 C 141.42 340.05 166.86 392.47 205.05 433.14 C 213.57 432.14 222.32 431.25 230.97 430.94 C 247.36 411.57 261.89 390.58 274.56 368.58 C 297.54 328.55 314.25 284.65 321.55 238.98 C 328.48 196.29 326.78 151.95 314.49 110.38 C 311.31 100.14 308.08 89.69 303.29 80.14 C 286.29 95.43 271.23 113.04 259.99 133.01 C 247.01 155.84 238.96 181.90 239.61 208.32 C 229.97 189.72 223.82 169.08 223.82 148.02 C 223.48 118.89 233.94 90.23 250.94 66.78 C 233.43 67.46 215.88 69.09 198.87 73.47 C 175.50 79.38 152.66 89.49 134.70 105.86 C 143.49 83.39 159.42 63.90 179.32 50.32 C 202.73 34.22 230.90 26.01 259.07 24.00 C 271.31 22.92 283.62 23.71 295.83 24.46 C 317.82 10.15 343.54 1.64 369.70 0.00 Z" />
</g>
</svg>
