<?xml version="1.0" encoding="UTF-8" ?>
<!DOCTYPE svg PUBLIC "-//W3C//DTD SVG 1.1//EN" "http://www.w3.org/Graphics/SVG/1.1/DTD/svg11.dtd">
<svg width="1279pt" height="349pt" viewBox="0 0 1279 349" version="1.1" xmlns="http://www.w3.org/2000/svg">
<g id="#00bad3ff">
</g>
<g id="#006775">
<path fill="#006775" opacity="1.00" d=" M 1163.30 47.26 C 1177.73 38.33 1195.11 33.46 1212.10 35.55 C 1224.93 37.00 1236.98 42.59 1247.07 50.55 C 1230.16 47.62 1212.54 50.49 1196.98 57.51 C 1210.75 64.38 1223.55 74.03 1231.73 87.27 C 1237.61 96.58 1241.02 107.44 1241.52 118.45 C 1227.15 96.13 1202.76 82.21 1177.70 75.11 C 1196.33 112.40 1198.51 156.19 1189.56 196.44 C 1184.26 220.74 1175.14 244.12 1163.44 266.04 C 1180.65 271.96 1196.23 282.56 1208.09 296.37 C 1196.80 292.61 1184.89 290.51 1172.97 290.63 C 1156.69 290.91 1140.97 295.54 1125.19 299.04 C 1101.49 304.89 1076.15 304.30 1053.00 296.37 C 1063.40 284.75 1076.08 274.98 1090.53 268.97 C 1069.86 239.63 1061.46 202.11 1067.30 166.72 C 1050.66 176.85 1037.49 192.78 1031.59 211.44 C 1028.75 198.79 1030.37 185.10 1036.47 173.63 C 1039.73 167.05 1044.42 161.30 1049.66 156.21 C 1035.71 153.72 1021.00 154.99 1007.96 160.70 C 1015.04 151.19 1024.79 143.45 1036.28 140.10 C 1048.56 136.08 1061.87 137.20 1074.07 140.91 C 1084.73 137.69 1096.00 135.50 1107.16 137.32 C 1122.00 139.31 1135.65 147.85 1144.18 160.11 C 1130.10 152.26 1113.22 151.25 1097.65 154.40 C 1109.28 164.31 1117.54 178.56 1118.75 193.94 C 1119.09 200.14 1119.07 206.49 1117.25 212.49 C 1112.12 190.68 1094.46 174.22 1075.09 164.36 C 1075.74 200.21 1089.93 235.77 1114.70 261.76 C 1119.23 261.11 1123.99 261.29 1128.41 260.34 C 1153.99 230.05 1171.99 192.65 1176.80 153.09 C 1179.80 127.40 1176.92 100.63 1166.21 76.93 C 1147.24 93.99 1132.42 117.83 1132.70 144.06 C 1126.18 131.51 1123.01 117.03 1125.14 102.94 C 1126.80 91.07 1131.69 79.75 1138.72 70.08 C 1117.08 70.49 1094.62 75.90 1077.80 90.18 C 1083.33 76.42 1093.93 64.91 1106.93 57.86 C 1122.66 49.16 1141.14 46.35 1158.92 47.72 C 1160.34 47.69 1162.00 48.16 1163.30 47.26 Z" />
<path fill="#006775" opacity="1.00" d=" M 579.51 73.50 C 594.17 73.50 608.84 73.49 623.50 73.51 C 623.49 83.75 623.51 94.00 623.49 104.24 C 608.83 104.26 594.17 104.25 579.50 104.25 C 579.50 94.00 579.49 83.75 579.51 73.50 Z" />
<path fill="#006775" opacity="1.00" d=" M 766.01 73.50 C 780.67 73.50 795.33 73.50 809.99 73.50 C 810.00 83.75 810.00 94.00 810.00 104.26 C 795.33 104.25 780.67 104.25 766.00 104.26 C 766.00 94.00 765.99 83.75 766.01 73.50 Z" />
<path fill="#006775" opacity="1.00" d=" M 188.17 82.09 C 202.11 77.11 217.80 75.88 231.89 80.99 C 242.55 84.62 251.70 92.01 258.20 101.13 C 244.12 93.26 227.22 92.24 211.64 95.41 C 223.30 105.31 231.56 119.59 232.76 134.98 C 233.11 141.14 233.03 147.44 231.31 153.42 C 227.71 138.66 218.22 125.89 206.47 116.52 C 201.35 112.28 195.54 109.00 189.83 105.66 C 184.02 104.78 179.39 108.91 174.97 112.00 C 161.30 122.03 150.72 136.26 145.60 152.47 C 142.61 139.30 144.55 125.03 151.20 113.25 C 154.33 107.10 159.04 102.02 163.65 96.97 C 149.64 95.03 135.02 95.84 121.97 101.70 C 129.75 91.10 141.02 82.95 153.95 80.08 C 165.25 77.33 177.21 78.44 188.17 82.09 Z" />
<path fill="#006775" opacity="1.00" d=" M 42.52 84.17 C 56.23 84.34 69.94 84.24 83.65 84.22 C 88.37 127.52 92.97 170.83 97.66 214.13 C 98.25 218.96 98.45 223.84 99.50 228.61 C 103.15 187.18 107.28 145.80 111.30 104.41 C 112.52 110.89 120.02 114.58 126.06 112.64 C 130.79 111.29 135.32 109.21 140.25 108.56 C 132.92 121.97 130.56 138.14 133.57 153.12 C 134.41 158.66 138.81 163.53 144.56 163.94 C 139.11 209.14 133.45 254.32 127.91 299.51 C 108.24 299.47 88.57 299.52 68.91 299.49 C 60.18 227.71 51.04 155.97 42.52 84.17 Z" />
<path fill="#006775" opacity="1.00" d=" M 456.38 84.32 C 470.13 84.15 483.89 84.32 497.66 84.23 C 502.40 128.11 507.11 172.00 511.84 215.89 C 512.36 220.12 512.56 224.40 513.46 228.58 C 517.77 180.45 522.65 132.37 527.14 84.25 C 540.91 84.26 554.67 84.23 568.45 84.27 C 559.57 156.01 550.75 227.76 541.91 299.51 C 522.23 299.47 502.56 299.52 482.89 299.49 C 474.09 227.76 465.24 156.04 456.38 84.32 Z" />
<path fill="#006775" opacity="1.00" d=" M 379.97 115.05 C 397.02 112.99 415.98 113.88 430.09 124.83 C 440.89 132.54 446.02 146.03 445.96 158.99 C 446.06 205.82 445.97 252.66 446.00 299.49 C 431.45 299.55 416.89 299.40 402.34 299.57 C 402.14 292.75 402.33 285.92 402.22 279.09 C 399.47 286.32 395.49 293.60 388.66 297.71 C 381.04 302.61 371.40 302.02 362.94 300.07 C 355.31 298.26 348.41 293.14 345.08 285.96 C 338.69 273.03 337.81 258.23 337.99 244.06 C 338.18 232.04 339.44 219.31 346.18 209.00 C 349.59 203.56 354.49 199.11 360.23 196.24 C 373.47 189.62 387.82 185.73 401.76 180.93 C 401.70 174.63 401.82 168.32 401.71 162.02 C 401.57 157.61 400.72 152.79 397.32 149.66 C 395.20 147.59 391.76 146.72 389.06 148.17 C 385.66 149.87 383.75 153.69 383.55 157.37 C 383.38 161.74 383.56 166.12 383.50 170.50 C 369.25 170.49 355.00 170.51 340.75 170.49 C 340.43 156.99 340.94 142.40 348.80 130.84 C 355.72 120.68 368.31 116.54 379.97 115.05 M 386.63 212.58 C 383.31 217.34 382.53 223.32 382.73 229.00 C 382.78 236.98 382.72 244.97 382.75 252.96 C 382.90 257.02 383.44 261.53 386.27 264.68 C 389.46 268.34 396.19 268.09 398.80 263.88 C 401.21 260.06 401.44 255.38 401.52 250.99 C 401.47 234.73 401.55 218.46 401.47 202.20 C 395.87 204.51 390.25 207.55 386.63 212.58 Z" />
<path fill="#006775" opacity="1.00" d=" M 678.01 115.16 C 692.37 113.43 707.73 113.41 720.98 119.97 C 730.33 124.47 738.30 132.27 741.80 142.16 C 745.38 151.68 744.69 162.03 744.75 172.01 C 744.70 214.52 744.84 257.03 744.68 299.54 C 730.12 299.43 715.56 299.54 701.00 299.49 C 700.96 292.52 701.11 285.55 700.89 278.59 C 698.41 286.77 693.49 294.72 685.67 298.70 C 678.58 302.44 670.16 301.84 662.55 300.28 C 655.15 298.71 648.25 294.17 644.61 287.43 C 639.13 277.54 637.50 266.06 636.84 254.92 C 636.51 241.90 636.42 228.43 641.20 216.10 C 644.50 208.13 650.13 200.91 657.85 196.84 C 671.36 189.82 686.14 185.88 700.49 180.98 C 700.41 174.02 700.71 167.06 700.33 160.12 C 700.09 155.24 697.98 149.61 693.03 147.81 C 688.62 146.25 684.28 149.88 682.98 153.92 C 681.52 159.30 682.56 164.98 682.24 170.49 C 668.00 170.50 653.76 170.50 639.51 170.50 C 639.17 157.17 639.66 142.84 647.21 131.33 C 653.90 121.06 666.38 116.69 678.01 115.16 M 682.18 219.99 C 680.77 228.58 681.82 237.35 681.50 246.01 C 681.55 251.92 680.83 258.43 684.18 263.65 C 686.92 268.07 694.22 268.55 697.29 264.26 C 699.95 260.42 700.15 255.55 700.26 251.04 C 700.24 234.77 700.27 218.50 700.24 202.23 C 692.18 205.27 683.86 210.93 682.18 219.99 Z" />
<path fill="#006775" opacity="1.00" d=" M 839.21 128.12 C 849.92 117.69 865.45 114.15 879.99 114.23 C 893.91 114.05 908.96 116.72 919.54 126.46 C 929.26 135.48 932.88 149.14 933.31 162.00 C 933.85 178.66 933.18 195.33 932.99 212.00 C 911.83 212.01 890.66 211.99 869.50 212.01 C 869.53 225.33 869.44 238.65 869.54 251.96 C 869.95 256.39 870.22 261.33 873.11 264.96 C 877.10 268.93 885.46 268.37 887.78 262.80 C 889.55 259.48 889.41 255.62 889.55 251.98 C 889.92 244.16 889.68 236.34 889.74 228.52 C 904.33 228.48 918.91 228.51 933.50 228.50 C 933.53 246.83 933.69 266.59 923.66 282.70 C 917.02 293.70 904.21 298.99 891.94 300.57 C 877.71 302.31 862.50 302.05 849.40 295.58 C 839.49 290.66 832.90 280.93 829.65 270.60 C 826.30 260.42 825.30 249.62 825.50 238.96 C 825.50 213.65 825.51 188.34 825.50 163.03 C 825.67 150.31 829.72 137.02 839.21 128.12 M 872.67 150.67 C 869.89 154.87 869.25 160.08 869.24 165.01 C 869.25 173.34 869.26 181.66 869.24 189.99 C 876.07 190.01 882.91 190.00 889.75 189.99 C 889.67 181.52 889.89 173.04 889.63 164.57 C 889.29 159.38 889.04 153.61 885.58 149.42 C 882.23 145.48 875.37 146.52 872.67 150.67 Z" />
<path fill="#006775" opacity="1.00" d=" M 956.25 130.19 C 965.96 119.95 980.19 115.37 993.96 114.39 C 1008.85 113.51 1024.88 115.35 1037.12 124.62 C 1022.19 127.66 1008.53 136.19 999.02 148.04 C 995.44 148.15 991.69 149.79 990.42 153.38 C 988.29 160.14 990.72 168.14 996.43 172.43 C 1003.00 177.43 1009.77 182.16 1016.40 187.10 C 1014.76 195.99 1014.83 205.22 1017.02 214.01 C 1017.94 218.06 1020.45 221.79 1024.03 223.95 C 1028.93 226.58 1034.88 226.40 1039.81 223.94 C 1042.95 222.12 1044.97 219.00 1046.50 215.80 C 1054.70 229.93 1055.91 247.19 1053.01 263.01 C 1050.70 275.95 1042.69 287.92 1031.04 294.21 C 1016.81 302.05 999.72 302.68 983.99 300.19 C 970.95 298.16 958.32 290.86 951.96 279.00 C 943.97 264.64 944.65 247.64 945.23 231.76 C 959.90 231.75 974.57 231.74 989.25 231.76 C 989.33 240.13 988.99 248.52 989.66 256.88 C 990.07 259.91 991.17 263.31 993.97 264.97 C 997.40 266.91 1002.29 267.28 1005.31 264.36 C 1008.14 261.34 1008.46 256.93 1008.66 253.00 C 1008.66 247.05 1007.91 240.71 1004.36 235.74 C 1001.05 231.07 996.69 227.28 992.19 223.80 C 984.85 218.13 977.52 212.45 970.18 206.78 C 962.07 200.69 954.26 193.53 949.96 184.16 C 945.99 175.01 945.52 164.83 945.77 155.00 C 946.05 145.80 949.85 136.80 956.25 130.19 Z" />
<path fill="#006775" opacity="1.00" d=" M 240.72 116.26 C 248.62 116.23 256.51 116.27 264.41 116.24 C 266.99 142.51 269.52 168.79 272.09 195.06 C 273.52 208.40 274.36 221.81 274.46 235.22 C 275.89 225.84 275.65 216.31 276.59 206.89 C 279.83 176.67 283.17 146.47 286.38 116.26 C 301.08 116.25 315.78 116.24 330.47 116.26 C 320.48 177.33 310.59 238.42 300.67 299.50 C 283.67 299.49 266.67 299.50 249.67 299.50 C 242.46 254.51 235.33 209.50 228.06 164.52 C 233.76 166.13 240.35 163.07 242.41 157.42 C 246.93 144.01 245.14 129.44 240.72 116.26 Z" />
<path fill="#006775" opacity="1.00" d=" M 579.48 116.28 C 594.15 116.20 608.81 116.29 623.48 116.24 C 623.52 177.32 623.49 238.40 623.50 299.49 C 608.83 299.52 594.17 299.49 579.51 299.50 C 579.48 238.43 579.53 177.35 579.48 116.28 Z" />
<path fill="#006775" opacity="1.00" d=" M 766.01 116.25 C 780.67 116.25 795.33 116.25 809.99 116.25 C 810.02 170.17 810.00 224.10 810.00 278.03 C 809.86 289.67 808.43 302.35 800.55 311.55 C 794.27 318.81 784.20 321.02 774.99 321.01 C 768.83 320.81 762.39 320.81 756.76 317.97 C 756.73 308.09 756.77 298.21 756.74 288.33 C 759.27 288.65 762.31 289.33 764.43 287.43 C 766.00 284.93 765.81 281.81 766.00 278.97 C 766.01 224.73 765.98 170.49 766.01 116.25 Z" />
<path fill="#006775" opacity="1.00" d=" M 184.06 120.13 C 185.66 119.03 187.86 118.26 189.63 119.44 C 196.45 123.30 202.51 128.43 207.80 134.20 C 208.80 135.24 209.65 136.50 209.48 138.03 C 209.52 191.85 209.50 245.67 209.49 299.50 C 194.83 299.50 180.17 299.51 165.50 299.49 C 165.49 246.67 165.52 193.85 165.49 141.03 C 165.17 137.67 167.98 135.32 169.88 132.93 C 174.16 128.21 178.76 123.70 184.06 120.13 Z" />
</g>
</svg>
